<svg data-v-423bf9ae="" xmlns="http://www.w3.org/2000/svg" viewBox="0 0 482 90" class="iconLeft"><!----><!----><!----><g data-v-423bf9ae="" id="ab8bda7d-2c6d-4d65-85f2-e62c0770db08" fill="#000000" transform="matrix(5.909965515136719,0,0,5.909965515136719,108.40706634521484,-27.01616096496582)"><path d="M6.43 13.40L4.68 8.44L2.96 13.40L6.43 13.40ZM1.67 17.09L0.27 17.09L0.27 17.09Q0.36 16.88 0.46 16.66L0.46 16.66L0.46 16.66Q0.55 16.43 0.67 16.15L0.67 16.15L0.67 16.15Q0.78 15.87 0.92 15.50L0.92 15.50L0.92 15.50Q1.05 15.14 1.23 14.66L1.23 14.66L3.96 7.11L5.43 7.11L8.17 14.66L8.17 14.66Q8.34 15.14 8.48 15.50L8.48 15.50L8.48 15.50Q8.61 15.87 8.73 16.15L8.73 16.15L8.73 16.15Q8.85 16.43 8.94 16.66L8.94 16.66L8.94 16.66Q9.04 16.88 9.13 17.09L9.13 17.09L7.72 17.09L6.79 14.46L2.59 14.46L1.67 17.09ZM16.71 17.09L15.45 17.09L15.45 13.33L15.45 13.33Q15.45 12.69 15.36 12.27L15.36 12.27L15.36 12.27Q15.28 11.85 15.11 11.61L15.11 11.61L15.11 11.61Q14.94 11.37 14.69 11.27L14.69 11.27L14.69 11.27Q14.43 11.18 14.08 11.18L14.08 11.18L14.08 11.18Q13.71 11.18 13.36 11.35L13.36 11.35L13.36 11.35Q13.01 11.53 12.71 11.80L12.71 11.80L12.71 11.80Q12.42 12.08 12.20 12.43L12.20 12.43L12.20 12.43Q11.97 12.78 11.86 13.13L11.86 13.13L11.86 17.09L10.60 17.09L10.60 12.89L10.60 12.89Q10.60 11.87 10.48 11.17L10.48 11.17L10.48 11.17Q10.37 10.47 10.25 10.12L10.25 10.12L11.48 10.12L11.48 10.12Q11.53 10.23 11.57 10.40L11.57 10.40L11.57 10.40Q11.61 10.58 11.64 10.77L11.64 10.77L11.64 10.77Q11.68 10.96 11.70 11.14L11.70 11.14L11.76 11.45L11.76 11.45Q12.41 10.67 13.07 10.33L13.07 10.33L13.07 10.33Q13.73 9.98 14.46 9.98L14.46 9.98L14.46 9.98Q15.55 9.98 16.13 10.69L16.13 10.69L16.13 10.69Q16.71 11.41 16.71 12.82L16.71 12.82L16.71 17.09ZM19.55 13.64L19.55 13.64L19.55 13.64Q19.55 14.23 19.69 14.70L19.69 14.70L19.69 14.70Q19.84 15.18 20.10 15.50L20.10 15.50L20.10 15.50Q20.36 15.83 20.73 16.00L20.73 16.00L20.73 16.00Q21.09 16.17 21.53 16.17L21.53 16.17L21.53 16.17Q21.94 16.17 22.31 16.00L22.31 16.00L22.31 16.00Q22.67 15.83 22.94 15.50L22.94 15.50L22.94 15.50Q23.21 15.18 23.36 14.70L23.36 14.70L23.36 14.70Q23.52 14.23 23.52 13.64L23.52 13.64L23.52 13.64Q23.52 13.04 23.37 12.56L23.37 12.56L23.37 12.56Q23.23 12.09 22.97 11.75L22.97 11.75L22.97 11.75Q22.70 11.42 22.34 11.25L22.34 11.25L22.34 11.25Q21.97 11.07 21.53 11.07L21.53 11.07L21.53 11.07Q21.12 11.07 20.75 11.25L20.75 11.25L20.75 11.25Q20.39 11.42 20.13 11.75L20.13 11.75L20.13 11.75Q19.86 12.09 19.70 12.56L19.70 12.56L19.70 12.56Q19.55 13.04 19.55 13.64ZM18.29 13.64L18.29 13.64L18.29 13.64Q18.29 12.76 18.55 12.08L18.55 12.08L18.55 12.08Q18.82 11.40 19.27 10.93L19.27 10.93L19.27 10.93Q19.72 10.46 20.32 10.22L20.32 10.22L20.32 10.22Q20.92 9.98 21.60 9.98L21.60 9.98L21.60 9.98Q22.31 9.98 22.89 10.22L22.89 10.22L22.89 10.22Q23.47 10.46 23.90 10.93L23.90 10.93L23.90 10.93Q24.32 11.40 24.55 12.08L24.55 12.08L24.55 12.08Q24.78 12.76 24.78 13.64L24.78 13.64L24.78 13.64Q24.78 14.52 24.51 15.20L24.51 15.20L24.51 15.20Q24.25 15.87 23.80 16.33L23.80 16.33L23.80 16.33Q23.34 16.79 22.74 17.02L22.74 17.02L22.74 17.02Q22.14 17.26 21.46 17.26L21.46 17.26L21.46 17.26Q20.76 17.26 20.18 17.02L20.18 17.02L20.18 17.02Q19.59 16.79 19.17 16.33L19.17 16.33L19.17 16.33Q18.75 15.87 18.52 15.20L18.52 15.20L18.52 15.20Q18.29 14.52 18.29 13.64ZM32.61 17.09L31.34 17.09L31.34 13.33L31.34 13.33Q31.34 12.69 31.26 12.27L31.26 12.27L31.26 12.27Q31.17 11.85 31.00 11.61L31.00 11.61L31.00 11.61Q30.84 11.37 30.58 11.27L30.58 11.27L30.58 11.27Q30.32 11.18 29.98 11.18L29.98 11.18L29.98 11.18Q29.61 11.18 29.25 11.35L29.25 11.35L29.25 11.35Q28.90 11.53 28.61 11.80L28.61 11.80L28.61 11.80Q28.31 12.08 28.09 12.43L28.09 12.43L28.09 12.43Q27.86 12.78 27.75 13.13L27.75 13.13L27.75 17.09L26.49 17.09L26.49 12.89L26.49 12.89Q26.49 11.87 26.38 11.17L26.38 11.17L26.38 11.17Q26.26 10.47 26.15 10.12L26.15 10.12L27.38 10.12L27.38 10.12Q27.42 10.23 27.46 10.40L27.46 10.40L27.46 10.40Q27.50 10.58 27.54 10.77L27.54 10.77L27.54 10.77Q27.57 10.96 27.60 11.14L27.60 11.14L27.65 11.45L27.65 11.45Q28.30 10.67 28.96 10.33L28.96 10.33L28.96 10.33Q29.63 9.98 30.35 9.98L30.35 9.98L30.35 9.98Q31.45 9.98 32.03 10.69L32.03 10.69L32.03 10.69Q32.61 11.41 32.61 12.82L32.61 12.82L32.61 17.09ZM41.02 7.11L42.49 7.11L42.49 7.11Q42.39 7.32 42.29 7.55L42.29 7.55L42.29 7.55Q42.20 7.78 42.09 8.07L42.09 8.07L42.09 8.07Q41.97 8.36 41.84 8.73L41.84 8.73L41.84 8.73Q41.70 9.11 41.53 9.60L41.53 9.60L38.90 17.09L37.36 17.09L34.69 9.60L34.69 9.60Q34.51 9.11 34.38 8.74L34.38 8.74L34.38 8.74Q34.25 8.37 34.14 8.07L34.14 8.07L34.14 8.07Q34.03 7.78 33.94 7.55L33.94 7.55L33.94 7.55Q33.85 7.32 33.77 7.11L33.77 7.11L35.24 7.11L38.12 15.76L41.02 7.11ZM44.78 13.64L44.78 13.64L44.78 13.64Q44.78 14.23 44.92 14.70L44.92 14.70L44.92 14.70Q45.06 15.18 45.33 15.50L45.33 15.50L45.33 15.50Q45.59 15.83 45.95 16.00L45.95 16.00L45.95 16.00Q46.31 16.17 46.76 16.17L46.76 16.17L46.76 16.17Q47.17 16.17 47.53 16.00L47.53 16.00L47.53 16.00Q47.89 15.83 48.16 15.50L48.16 15.50L48.16 15.50Q48.43 15.18 48.59 14.70L48.59 14.70L48.59 14.70Q48.74 14.23 48.74 13.64L48.74 13.64L48.74 13.64Q48.74 13.04 48.60 12.56L48.60 12.56L48.60 12.56Q48.45 12.09 48.19 11.75L48.19 11.75L48.19 11.75Q47.93 11.42 47.56 11.25L47.56 11.25L47.56 11.25Q47.20 11.07 46.76 11.07L46.76 11.07L46.76 11.07Q46.34 11.07 45.98 11.25L45.98 11.25L45.98 11.25Q45.62 11.42 45.35 11.75L45.35 11.75L45.35 11.75Q45.08 12.09 44.93 12.56L44.93 12.56L44.93 12.56Q44.78 13.04 44.78 13.64ZM43.51 13.64L43.51 13.64L43.51 13.64Q43.51 12.76 43.78 12.08L43.78 12.08L43.78 12.08Q44.04 11.40 44.50 10.93L44.50 10.93L44.50 10.93Q44.95 10.46 45.55 10.22L45.55 10.22L45.55 10.22Q46.15 9.98 46.83 9.98L46.83 9.98L46.83 9.98Q47.53 9.98 48.11 10.22L48.11 10.22L48.11 10.22Q48.70 10.46 49.12 10.93L49.12 10.93L49.12 10.93Q49.54 11.40 49.77 12.08L49.77 12.08L49.77 12.08Q50.00 12.76 50.00 13.64L50.00 13.64L50.00 13.64Q50.00 14.52 49.74 15.20L49.74 15.20L49.74 15.20Q49.47 15.87 49.02 16.33L49.02 16.33L49.02 16.33Q48.57 16.79 47.97 17.02L47.97 17.02L47.97 17.02Q47.37 17.26 46.69 17.26L46.69 17.26L46.69 17.26Q45.99 17.26 45.40 17.02L45.40 17.02L45.40 17.02Q44.82 16.79 44.40 16.33L44.40 16.33L44.40 16.33Q43.98 15.87 43.74 15.20L43.74 15.20L43.74 15.20Q43.51 14.52 43.51 13.64ZM50.86 11.28L50.86 10.29L52.23 10.29L52.23 8.07L53.49 8.07L53.49 10.29L55.71 10.29L55.71 11.28L53.49 11.28L53.49 14.42L53.49 14.42Q53.49 14.95 53.54 15.29L53.54 15.29L53.54 15.29Q53.59 15.62 53.70 15.81L53.70 15.81L53.70 15.81Q53.81 16.00 53.97 16.06L53.97 16.06L53.97 16.06Q54.13 16.13 54.37 16.13L54.37 16.13L54.37 16.13Q54.66 16.13 55.03 16.00L55.03 16.00L55.03 16.00Q55.40 15.87 55.85 15.62L55.85 15.62L55.85 16.71L55.85 16.71Q55.38 17.02 54.95 17.14L54.95 17.14L54.95 17.14Q54.52 17.26 54.15 17.26L54.15 17.26L54.15 17.26Q53.75 17.26 53.40 17.17L53.40 17.17L53.40 17.17Q53.05 17.08 52.79 16.84L52.79 16.84L52.79 16.84Q52.53 16.61 52.38 16.23L52.38 16.23L52.38 16.23Q52.23 15.84 52.23 15.24L52.23 15.24L52.23 11.28L50.86 11.28ZM63.12 13.77L58.28 13.77L58.28 13.77Q58.30 14.38 58.46 14.82L58.46 14.82L58.46 14.82Q58.63 15.26 58.92 15.56L58.92 15.56L58.92 15.56Q59.21 15.85 59.61 15.99L59.61 15.99L59.61 15.99Q60.00 16.13 60.46 16.13L60.46 16.13L60.46 16.13Q61.13 16.13 61.76 15.98L61.76 15.98L61.76 15.98Q62.40 15.83 63.03 15.45L63.03 15.45L63.16 16.58L63.16 16.58Q62.80 16.76 62.45 16.89L62.45 16.89L62.45 16.89Q62.10 17.02 61.76 17.10L61.76 17.10L61.76 17.10Q61.41 17.19 61.05 17.22L61.05 17.22L61.05 17.22Q60.69 17.26 60.29 17.26L60.29 17.26L60.29 17.26Q59.64 17.26 59.04 17.03L59.04 17.03L59.04 17.03Q58.45 16.80 58.00 16.35L58.00 16.35L58.00 16.35Q57.54 15.91 57.28 15.24L57.28 15.24L57.28 15.24Q57.01 14.58 57.01 13.71L57.01 13.71L57.01 13.71Q57.01 12.86 57.24 12.17L57.24 12.17L57.24 12.17Q57.47 11.48 57.89 11.00L57.89 11.00L57.89 11.00Q58.32 10.51 58.93 10.24L58.93 10.24L58.93 10.24Q59.53 9.98 60.29 9.98L60.29 9.98L60.29 9.98Q60.85 9.98 61.28 10.11L61.28 10.11L61.28 10.11Q61.71 10.25 62.03 10.48L62.03 10.48L62.03 10.48Q62.34 10.72 62.56 11.03L62.56 11.03L62.56 11.03Q62.77 11.35 62.89 11.71L62.89 11.71L62.89 11.71Q63.02 12.07 63.08 12.47L63.08 12.47L63.08 12.47Q63.13 12.86 63.13 13.24L63.13 13.24L63.13 13.51L63.13 13.51Q63.13 13.68 63.12 13.77L63.12 13.77ZM60.19 11.01L60.19 11.01L60.19 11.01Q59.44 11.01 58.96 11.45L58.96 11.45L58.96 11.45Q58.48 11.89 58.33 12.82L58.33 12.82L61.90 12.82L61.90 12.82Q61.90 12.38 61.77 12.04L61.77 12.04L61.77 12.04Q61.65 11.70 61.42 11.47L61.42 11.47L61.42 11.47Q61.19 11.24 60.87 11.12L60.87 11.12L60.87 11.12Q60.56 11.01 60.19 11.01Z"></path></g><defs data-v-423bf9ae=""><linearGradient data-v-423bf9ae="" gradientTransform="rotate(25)" id="88be8bb9-7e84-478d-a2ab-4f2172321d10" x1="0%" y1="0%" x2="100%" y2="0%"><stop data-v-423bf9ae="" offset="0%" style="stop-color: rgb(233, 13, 218); stop-opacity: 1;"></stop><stop data-v-423bf9ae="" offset="100%" style="stop-color: rgb(21, 207, 241); stop-opacity: 1;"></stop></linearGradient></defs><g data-v-423bf9ae="" id="05c46023-54be-45a4-bec7-fb645fa9d039" transform="matrix(1.083827257156372,0,0,1.083827257156372,-8.73610782623291,-7.662758827209473)" stroke="none" fill="url(#88be8bb9-7e84-478d-a2ab-4f2172321d10)"><path d="M50.301 7.906c-22.895 0-41.52 18.625-41.52 41.52 0 13.588 6.56 25.672 16.681 33.251A41.309 41.309 0 0 0 50.3 90.946a41.293 41.293 0 0 0 24.835-8.269c10.121-7.578 16.684-19.663 16.684-33.251 0-22.895-18.626-41.52-41.518-41.52zm23.638 66.383c-.203-1.079-.395-1.838-.566-2.188-3.42-6.989-8.719-11.243-21.736-11.243h-2.672c-13.018 0-18.318 4.254-21.738 11.243-.172.351-.363 1.109-.567 2.188-6.578-6.258-10.685-15.09-10.685-24.863 0-18.927 15.398-34.325 34.327-34.325 18.926 0 34.324 15.398 34.324 34.325-.001 9.773-4.107 18.606-10.687 24.863z"></path><path d="M50.32 29.716c-7.716 0-13.967 6.24-13.967 13.957 0 7.696 6.253 13.937 13.967 13.937 7.684 0 13.927-6.241 13.927-13.937.001-7.717-6.243-13.957-13.927-13.957zm.083 23.624a1.74 1.74 0 0 1 0-3.478c.96 0 1.731.777 1.731 1.738 0 .96-.771 1.74-1.731 1.74zm5.182-12.219a4.44 4.44 0 0 1-.701 1.199 4.7 4.7 0 0 1-.929.849c-.34.234-.66.468-.962.702a4.494 4.494 0 0 0-.804.803c-.233.302-.381.679-.44 1.131l.008.86c0 .847-.679 1.533-1.526 1.533a1.534 1.534 0 0 1-1.535-1.533l-.002-1.018c.045-.648.169-1.191.373-1.63.204-.437.441-.81.713-1.12.271-.309.558-.577.86-.803.302-.227.581-.453.838-.68a3.02 3.02 0 0 0 .621-.747c.159-.271.23-.611.215-1.018 0-.694-.169-1.207-.508-1.539-.34-.333-.812-.499-1.415-.499-.409 0-.758.08-1.052.239a2.105 2.105 0 0 0-.726.633 2.785 2.785 0 0 0-.419.928c-.09.354-.132.733-.132 1.14a1.67 1.67 0 0 1-1.661 1.676 1.675 1.675 0 0 1-1.669-1.676 6.446 6.446 0 0 1 .417-2.238 5.316 5.316 0 0 1 1.11-1.765 4.982 4.982 0 0 1 1.72-1.166c.671-.28 1.422-.419 2.252-.419 1.072 0 1.965.146 2.681.441.718.295 1.295.66 1.732 1.097.438.438.75.91.939 1.415.188.507.282.979.282 1.415.002.726-.092 1.322-.28 1.79z"></path></g><!----></svg>