<?xml version="1.0" ?><!DOCTYPE svg  PUBLIC '-//W3C//DTD SVG 1.1//EN'  'http://www.w3.org/Graphics/SVG/1.1/DTD/svg11.dtd'><svg enable-background="new 0 0 300 300" height="2048px" style="shape-rendering:geometricPrecision; text-rendering:geometricPrecision; image-rendering:optimizeQuality; fill-rule:evenodd; clip-rule:evenodd" version="1.1" viewBox="0 0 2048 2048" width="2048px" xml:space="preserve" xmlns="http://www.w3.org/2000/svg" xmlns:xlink="http://www.w3.org/1999/xlink"><defs><style type="text/css">
   <![CDATA[
    .fil4 {fill:none}
    .fil2 {fill:#9AE285}
    .fil3 {fill:#EBE5DF}
    .fil1 {fill:white}
    .fil0 {fill:#333333;fill-rule:nonzero}
   ]]>
  </style></defs><g id="Layer_x0020_1"><path class="fil0" d="M1776 1539.2c0,65.3906 -26.5051,124.593 -69.3567,167.445 -42.8516,42.8516 -102.054,69.3567 -167.445,69.3567l-1030.4 0c-65.3906,0 -124.593,-26.5051 -167.445,-69.3567 -42.8516,-42.8516 -69.3567,-102.054 -69.3567,-167.445l0 -1030.4c0,-65.3894 26.5063,-124.591 69.3591,-167.443 42.8516,-42.8528 102.053,-69.3591 167.443,-69.3591l1030.4 0c65.3906,0 124.592,26.5063 167.444,69.3579 42.8516,42.8516 69.3579,102.054 69.3579,167.444l0 1030.4zm-91.982 144.82c37.0595,-37.0595 59.9811,-88.2615 59.9811,-144.82l0 -1030.4c0,-56.5559 -22.9229,-107.759 -59.9823,-144.819 -37.0595,-37.0595 -88.2615,-59.9823 -144.819,-59.9823l-1030.4 0c-56.5559,0 -107.758,22.9229 -144.817,59.9835 -37.0607,37.0595 -59.9835,88.2615 -59.9835,144.817l0 1030.4c0,56.5583 22.9217,107.76 59.9811,144.82 37.0595,37.0595 88.2615,59.9811 144.82,59.9811l1030.4 0c56.5583,0 107.76,-22.9217 144.82,-59.9811z"/><path class="fil0" d="M1012.02 749.742c-10.3004,0.188977 -19.891,4.75748 -26.9055,11.8287 -6.88229,6.93662 -11.1449,16.2106 -10.9677,25.976 0.185433,10.2756 4.52363,19.4492 11.4449,26.0303 7.00394,6.65906 16.6689,10.676 27.404,10.5473 10.7079,-0.12874 20.0669,-4.27087 26.6799,-11.0114 6.57402,-6.69922 10.5047,-16.0748 10.4185,-26.7225l-0.00590552 -0.48189 -0.0011811 0c-0.184252,-10.1362 -4.41496,-19.1988 -11.152,-25.7044 -6.78544,-6.55276 -16.1091,-10.5378 -26.4201,-10.4693l-0.494882 0.00590552 0 0.0011811zm-49.5307 -10.6713c12.5658,-12.6673 30.0201,-20.8536 49.03,-21.2043l0.0625985 0 0.557481 -0.00708662 0.0625985 0c19.05,-0.157087 36.2918,7.21064 48.8575,19.3441 12.6284,12.1961 20.5571,29.1874 20.9032,48.2044l0 0.0625985 0.00708662 0.544489 0 0.0625985c0.185433,19.4728 -7.19174,36.8233 -19.5437,49.4103 -12.3248,12.5622 -29.5429,20.2784 -49.0548,20.5122 -19.4043,0.233858 -36.9662,-7.11733 -49.7788,-19.2992 -12.8929,-12.2587 -20.974,-29.4012 -21.3213,-48.6532 -0.341339,-18.7193 7.52008,-36.1772 20.2181,-48.9768z"/><path class="fil0" d="M710.554 788.055l0.0129921 -0.381496 0.0011811 0c0.259843,-9.54213 -3.85276,-18.7288 -10.5567,-25.702 -6.8315,-7.10552 -16.2071,-11.8039 -26.2984,-12.1925l0 -0.00236221 -0.420473 -0.0141732 0 -0.0011811c-10.5721,-0.292914 -20.1744,3.56693 -27.1937,10.089 -6.98386,6.4878 -11.4331,15.6036 -11.7366,25.8473l-0.0011811 0 -0.00472441 0.172441c-0.264567,10.428 3.55276,19.7823 10.0417,26.5807 6.49843,6.80906 15.737,11.1106 26.2973,11.4224l0.240945 0.00708662 0 0.0011811c10.6583,0.253937 20.4189,-3.66851 27.5906,-10.2272 7.07599,-6.47008 11.6421,-15.515 12.0248,-25.5992l0.00236221 0zm31.8886 0.617717l-0.0153543 0.444095 0 0.0625985c-0.721654,18.9874 -9.22442,35.9268 -22.3996,47.9741 -13.0654,11.948 -30.7299,19.089 -49.9028,18.6024l-0.0625985 0 -0.240945 -0.00708662c-19.3547,-0.570473 -36.4193,-8.59135 -48.5469,-21.2988 -12.1394,-12.7181 -19.2839,-30.0851 -18.7937,-49.3288l0.00590552 -0.23504 0 -0.0625985c0.569292,-19.2189 8.85709,-36.2646 21.8634,-48.3473 12.9543,-12.0354 30.5764,-19.1563 49.8792,-18.5894l0.0625985 0 0.483071 0.0165354 0.0625985 0c18.7465,0.722835 35.8973,9.17363 48.1748,21.9437 12.3898,12.8882 19.9701,30.2906 19.4303,48.763l0 0.0625985z"/><path class="fil0" d="M1274.09 852.896c-57.7122,3.01418 -111.579,13.2378 -161.094,32.5453 -49.2414,19.2012 -94.2627,47.4284 -134.582,86.543 -40.6181,39.4016 -70.18,83.1922 -88.2957,132.032 -18.1205,48.8552 -24.8303,102.976 -19.7445,163.034l1.66063 19.6063 -19.5354 -2.4189c-6.68741,-0.827953 -23.0918,-2.97402 -39.228,-5.08347 -30.9733,-4.05 -60.5174,-7.91457 -91.4162,-10.5165 -6.69095,-0.562205 -13.9595,-0.414567 -20.7685,0.73819 -5.53465,0.936615 -10.6524,2.47205 -14.6728,4.74095 -28.1055,15.8587 -57.0945,34.2697 -88.5402,54.2398 -11.6504,7.39961 -23.6823,15.0414 -38.6681,24.4099l-32.211 20.1378 8.21103 -37.1374c2.50866,-11.3457 4.93111,-23.1756 7.27796,-34.6335 5.24292,-25.6004 10.1138,-49.3772 17.0244,-72.3532 2.69764,-8.96575 3.58229,-15.4571 2.01732,-20.2689 -1.5626,-4.80591 -6.06969,-9.58583 -14.2099,-15.3437 -74.1945,-52.3819 -126.932,-118.042 -155.232,-190.974 -28.1941,-72.6615 -32.0469,-152.307 -8.63623,-233.042 20.9374,-72.1938 56.6729,-130.704 104.376,-177.264 50.7048,-49.4847 114.738,-85.2485 188.726,-109.419 97.728,-31.9217 201.506,-31.65 295.747,-4.03701 94.7505,27.763 179.928,83.1627 239.762,161.287 21.6709,28.2981 39.1748,58.3867 52.1611,90.8505 12.9791,32.4485 21.4099,67.239 24.9343,104.952l1.54252 16.5083 -16.6051 0.86693zm-172.719 2.79567c47.8949,-18.6756 99.4017,-29.3717 154.149,-33.5799 -3.90355,-28.2591 -10.9453,-54.7111 -20.9268,-79.6678 -11.8713,-29.6788 -27.952,-57.2871 -47.9115,-83.3505 -55.617,-72.619 -134.938,-124.158 -223.262,-150.038 -88.2579,-25.8603 -185.456,-26.1118 -276.998,3.78898 -69.4571,22.6902 -129.317,56.015 -176.351,101.919 -43.8178,42.7666 -76.6843,96.6497 -96.0024,163.263 -21.398,73.7942 -17.9232,146.472 7.76221,212.668 26.0067,67.0217 74.876,127.647 143.858,176.349 14.0705,9.95198 22.3536,19.7386 26.2099,31.5933 3.85276,11.8465 2.7874,24.1252 -1.76929,39.2681 -6.53504,21.7276 -11.1295,43.8803 -15.9992,67.6536l6.61772 -4.20237c30.7394,-19.5213 59.0752,-37.5177 90.0379,-54.9886 7.57323,-4.27323 16.2225,-6.99922 25.05,-8.49213 9.65316,-1.63347 19.6429,-1.87087 28.6418,-1.11378 29.7331,2.50394 60.5788,6.53859 92.9162,10.7669 5.74843,0.751182 11.5795,1.51417 19.8284,2.56063 -2.58898,-57.1099 5.14252,-109.337 22.8945,-157.199 19.7681,-53.2949 51.9225,-100.981 96.0461,-143.782 43.552,-42.2516 92.1261,-72.7182 145.207,-93.417z"/><path class="fil1" d="M1388.02 1074.58c-23.2335,-0.161811 -42.9839,18.8622 -43.9288,42.3402 -1.00512,25.1079 18.5067,45.7252 43.3559,45.789 24.0319,0.0826772 43.0252,-18.0969 43.8992,-42.0118 0.927166,-25.1658 -18.5917,-45.9449 -43.3264,-46.1174z"/><path class="fil0" d="M1387.89 1090.52c-7.27796,-0.0330709 -14.0634,2.97992 -19.1386,7.87087 -5.10827,4.92284 -8.42835,11.7047 -8.72717,19.1563 -0.0236221,0.602363 -0.0366142,0.967324 -0.0366142,1.11024 -0.0188977,7.63229 2.88307,14.5264 7.65591,19.5638 4.74804,5.01142 11.348,8.22166 18.7465,8.51694 0.577559,0.022441 0.930709,0.0354331 1.05236,0.0354331 7.74449,0.0259843 14.615,-2.82638 19.5709,-7.56851 4.9689,-4.75512 8.113,-11.4449 8.39056,-19.0677l0.0307087 -0.895276c0.0531496,-7.79882 -2.90315,-14.8748 -7.77284,-20.0528 -4.79764,-5.10237 -11.4555,-8.36812 -18.887,-8.64095l0 -0.00236221 -0.884646 -0.0259843zm-41.263 -15.1299c10.8307,-10.4386 25.5189,-16.8567 41.4508,-16.7457l0.0625985 0c0.764174,0.00590552 1.33465,0.0165354 1.69606,0.0283465l0.0625985 0c16.2165,0.597638 30.665,7.63938 41.0114,18.6425 10.2768,10.9252 16.513,25.7669 16.3996,42.052 -0.00590552,0.8563 -0.0165354,1.5189 -0.0307087,1.89449 -0.595276,16.2886 -7.39016,30.6544 -18.1417,40.9441 -10.7658,10.3028 -25.4126,16.4988 -41.6953,16.4433 -1.00039,-0.0011811 -1.76929,-0.0141732 -2.30197,-0.0354331 -16.0736,-0.643701 -30.3662,-7.57087 -40.6205,-18.3933 -10.2295,-10.7941 -16.4492,-25.4457 -16.4079,-41.563 0.0011811,-1.00512 0.0141732,-1.80354 0.0366142,-2.35984 0.643701,-16.0205 7.67127,-30.4925 18.4784,-40.9075z"/><path class="fil1" d="M1111.96 1163.01c23.954,0.0236221 43.6689,-18.7193 44.576,-42.3733 0.956694,-25.0429 -19.1847,-46.0489 -44.263,-46.1528 -24.828,-0.113386 -45.6319,21.1866 -44.7638,45.8575 0.81378,23.5725 20.6717,42.6378 44.4508,42.6685z"/><path class="fil0" d="M1111.96 1147.07c7.71497,0.00708662 14.752,-3.00945 19.9299,-7.93111 5.13071,-4.87678 8.42245,-11.6032 8.70827,-19.0666l0 -0.0625985 0.0318898 -0.902363 0 -0.0625985c0.0307087,-7.61339 -3.00473,-14.6067 -7.96182,-19.7764 -4.97481,-5.18741 -11.8358,-8.52757 -19.428,-8.81694 -0.553937,-0.0200788 -0.900001,-0.0318898 -1.02992,-0.0318898 -0.205512,0 -0.56693,0.00826772 -1.09016,0.0259843 -7.48465,0.262205 -14.3776,3.62244 -19.4339,8.80276 -5.06221,5.18741 -8.23229,12.1016 -8.26536,19.4693 0,0.191339 0.00826772,0.542126 0.0259843,1.05945l0 0.0625985c0.256299,7.42678 3.5752,14.2063 8.73898,19.1622 5.18504,4.97717 12.1854,8.05867 19.774,8.06812zm41.9292 15.1925c-10.8921,10.3547 -25.6949,16.6984 -41.9292,16.6831 -16.187,-0.0200788 -31.0087,-6.49016 -41.8985,-16.9429 -10.898,-10.461 -17.915,-24.9827 -18.4878,-41.1012l-0.00236221 0c-0.0212599,-0.607087 -0.0295276,-1.38425 -0.0259843,-2.30906 0.0744095,-16.011 6.69449,-30.7607 17.2654,-41.5937 10.5756,-10.8366 25.1705,-17.8654 41.1851,-18.4288 0.611811,-0.0212599 1.40079,-0.0295276 2.33977,-0.0259843 0.889371,0.00354331 1.56969,0.0153543 2.02914,0.0318898 16.2614,0.62126 30.8351,7.65237 41.3044,18.5681 10.4705,10.9205 16.8874,25.7504 16.8366,41.9634l0 0.0625985c-0.0011811,0.917717 -0.0129921,1.61693 -0.0318898,2.08937l-0.00236221 0c-0.635434,16.1646 -7.65473,30.6166 -18.5823,41.0032z"/><path class="fil0" d="M1533.69 1592.18c-12.3036,-5.47796 -23.7307,-11.5051 -35.015,-17.4567 -23.6705,-12.4843 -46.6819,-24.6225 -68.98,-26.9504 -18.3732,-1.91811 -39.0851,4.02638 -60.0083,10.0323 -16.3122,4.68189 -32.7449,9.39922 -50.1048,11.1744 -61.0158,6.24213 -118.904,0.746457 -172.839,-16.8496 -53.139,-17.3362 -102.367,-46.4209 -146.888,-87.593 -24.091,-22.2827 -44.2489,-46.128 -60.5422,-70.9961 -41.8512,-63.8823 -59.0693,-135.151 -52.663,-204.766 6.39567,-69.4926 36.3697,-137.153 88.9123,-193.958 21.5516,-23.3008 46.7457,-44.6859 75.489,-63.5162 87.6367,-57.4134 195.553,-76.5745 296.907,-61.4835 101.576,15.1252 196.837,64.6926 258.884,144.69 54.6496,70.4564 78.5882,152.634 72.0166,231.982 -6.51142,78.6249 -42.9603,154.351 -109.147,213.073 -16.1882,14.3622 -27.0626,27.0236 -31.0122,39.9095 -3.61536,11.8004 -1.34291,25.2437 8.14489,42.5433 4.12914,7.53544 5.5441,15.1299 7.0252,23.0858 0.498426,2.68465 1.01221,5.43189 1.82008,8.64213l8.0067 31.7965 -30.0059 -13.3595zm-100.745 -76.1575c28.4575,2.97166 54.0839,16.4634 80.4367,30.3626 -9.19489,-20.7933 -10.5165,-38.8843 -5.18386,-56.289 5.91969,-19.3134 19.9488,-36.2752 40.3878,-54.4087 59.6835,-52.9524 92.5406,-121.121 98.3965,-191.823 5.93032,-71.602 -15.8079,-145.934 -65.3906,-209.857 -56.7532,-73.1729 -144.454,-118.596 -238.259,-132.565 -94.0253,-13.9996 -193.921,3.63189 -274.782,56.6079 -26.7969,17.5547 -50.0209,37.2059 -69.6142,58.3902 -47.6244,51.4878 -74.7745,112.603 -80.5359,175.21 -5.75079,62.4839 9.83505,126.652 47.6622,184.391 15.0614,22.9878 33.5185,44.8678 55.4162,65.1213 40.9654,37.8839 86.256,64.643 135.138,80.5914 49.6902,16.2106 103.186,21.2575 159.715,15.4748 14.2394,-1.45512 29.478,-5.82993 44.6055,-10.1728 23.8181,-6.83623 47.3953,-13.6039 72.0083,-11.0339z"/><path class="fil2" d="M1347.95 869.818c101.576,15.1252 196.837,64.6926 258.884,144.69 54.6496,70.4564 78.5882,152.634 72.0166,231.982 -6.51142,78.6249 -42.9603,154.351 -109.147,213.073 -16.1882,14.3622 -27.0626,27.0236 -31.0122,39.9095 -3.61536,11.8004 -1.34291,25.2437 8.14489,42.5433 4.12914,7.53544 5.5441,15.1299 7.0252,23.0858 0.498426,2.68465 1.01221,5.43189 1.82008,8.64213l8.0067 31.7965 -30.0059 -13.3595c-12.3036,-5.47796 -23.7307,-11.5051 -35.015,-17.4567 -23.6705,-12.4843 -46.6819,-24.6225 -68.98,-26.9504 -18.3732,-1.91811 -39.0851,4.02638 -60.0083,10.0323 -16.3122,4.68189 -32.7449,9.39922 -50.1048,11.1744 -61.0158,6.24213 -118.904,0.746457 -172.839,-16.8496 -53.139,-17.3362 -102.367,-46.4209 -146.888,-87.593 -24.091,-22.2827 -44.2489,-46.128 -60.5422,-70.9961 -41.8512,-63.8823 -59.0693,-135.151 -52.663,-204.766 6.39567,-69.4926 36.3697,-137.153 88.9123,-193.958 21.5516,-23.3008 46.7457,-44.6859 75.489,-63.5162 87.6367,-57.4134 195.553,-76.5745 296.907,-61.4835zm336.065 814.202c37.0595,-37.0595 59.9811,-88.2615 59.9811,-144.82l0 -1030.4c0,-56.5559 -22.9229,-107.759 -59.9823,-144.819 -37.0595,-37.0595 -88.2615,-59.9823 -144.819,-59.9823l-1030.4 0c-56.5559,0 -107.758,22.9229 -144.817,59.9835 -37.0607,37.0595 -59.9835,88.2615 -59.9835,144.817l0 1030.4c0,56.5583 22.9217,107.76 59.9811,144.82 37.0595,37.0595 88.2615,59.9811 144.82,59.9811l1030.4 0c56.5583,0 107.76,-22.9217 144.82,-59.9811zm-419.805 -953.45c12.9791,32.4485 21.4099,67.239 24.9343,104.952l1.54252 16.5083 -16.6051 0.86693c-57.7122,3.01418 -111.579,13.2378 -161.094,32.5453 -49.2414,19.2012 -94.2627,47.4284 -134.582,86.543 -40.6181,39.4016 -70.18,83.1922 -88.2957,132.032 -18.1205,48.8552 -24.8303,102.976 -19.7445,163.034l1.66063 19.6063 -19.5354 -2.4189c-6.68741,-0.827953 -23.0918,-2.97402 -39.228,-5.08347 -30.9733,-4.05 -60.5174,-7.91457 -91.4162,-10.5165 -6.69095,-0.562205 -13.9595,-0.414567 -20.7685,0.73819 -5.53465,0.936615 -10.6524,2.47205 -14.6728,4.74095 -28.1055,15.8587 -57.0945,34.2697 -88.5402,54.2398 -11.6504,7.39961 -23.6823,15.0414 -38.6681,24.4099l-32.211 20.1378 8.21103 -37.1374c2.50866,-11.3457 4.93111,-23.1756 7.27796,-34.6335 5.24292,-25.6004 10.1138,-49.3772 17.0244,-72.3532 2.69764,-8.96575 3.58229,-15.4571 2.01732,-20.2689 -1.5626,-4.80591 -6.06969,-9.58583 -14.2099,-15.3437 -74.1945,-52.3819 -126.932,-118.042 -155.232,-190.974 -28.1941,-72.6615 -32.0469,-152.307 -8.63623,-233.042 20.9374,-72.1938 56.6729,-130.704 104.376,-177.264 50.7048,-49.4847 114.738,-85.2485 188.726,-109.419 97.728,-31.9217 201.506,-31.65 295.747,-4.03701 94.7505,27.763 179.928,83.1627 239.762,161.287 21.6709,28.2981 39.1748,58.3867 52.1611,90.8505z"/><path class="fil3" d="M1255.52 822.112c-3.90355,-28.2591 -10.9453,-54.7111 -20.9268,-79.6678 -11.8713,-29.6788 -27.952,-57.2871 -47.9115,-83.3505 -55.617,-72.619 -134.938,-124.158 -223.262,-150.038 -88.2579,-25.8603 -185.456,-26.1118 -276.998,3.78898 -69.4571,22.6902 -129.317,56.015 -176.351,101.919 -43.8178,42.7666 -76.6843,96.6497 -96.0024,163.263 -21.398,73.7942 -17.9232,146.472 7.76221,212.668 26.0067,67.0217 74.876,127.647 143.858,176.349 14.0705,9.95198 22.3536,19.7386 26.2099,31.5933 3.85276,11.8465 2.7874,24.1252 -1.76929,39.2681 -6.53504,21.7276 -11.1295,43.8803 -15.9992,67.6536l6.61772 -4.20237c30.7394,-19.5213 59.0752,-37.5177 90.0379,-54.9886 7.57323,-4.27323 16.2225,-6.99922 25.05,-8.49213 9.65316,-1.63347 19.6429,-1.87087 28.6418,-1.11378 29.7331,2.50394 60.5788,6.53859 92.9162,10.7669 5.74843,0.751182 11.5795,1.51417 19.8284,2.56063 -2.58898,-57.1099 5.14252,-109.337 22.8945,-157.199 19.7681,-53.2949 51.9225,-100.981 96.0461,-143.782 43.552,-42.2516 92.1261,-72.7182 145.207,-93.417 47.8949,-18.6756 99.4017,-29.3717 154.149,-33.5799zm-293.029 -83.041c12.5658,-12.6673 30.0201,-20.8536 49.03,-21.2043l0.0625985 0 0.557481 -0.00708662 0.0625985 0c19.05,-0.157087 36.2918,7.21064 48.8575,19.3441 12.6284,12.1961 20.5571,29.1874 20.9032,48.2044l0 0.0625985 0.00708662 0.544489 0 0.0625985c0.185433,19.4728 -7.19174,36.8233 -19.5437,49.4103 -12.3248,12.5622 -29.5429,20.2784 -49.0548,20.5122 -19.4043,0.233858 -36.9662,-7.11733 -49.7788,-19.2992 -12.8929,-12.2587 -20.974,-29.4012 -21.3213,-48.6532 -0.341339,-18.7193 7.52008,-36.1772 20.2181,-48.9768zm-239.475 0.775985c12.3898,12.8882 19.9701,30.2906 19.4303,48.763l0 0.0625985 -0.0153543 0.444095 0 0.0625985c-0.721654,18.9874 -9.22442,35.9268 -22.3996,47.9741 -13.0654,11.948 -30.7299,19.089 -49.9028,18.6024l-0.0625985 0 -0.240945 -0.00708662c-19.3547,-0.570473 -36.4193,-8.59135 -48.5469,-21.2988 -12.1394,-12.7181 -19.2839,-30.0851 -18.7937,-49.3288l0.00590552 -0.23504 0 -0.0625985c0.569292,-19.2189 8.85709,-36.2646 21.8634,-48.3473 12.9543,-12.0354 30.5764,-19.1563 49.8792,-18.5894l0.0625985 0 0.483071 0.0165354 0.0625985 0c18.7465,0.722835 35.8973,9.17363 48.1748,21.9437z"/><path class="fil3" d="M1343.33 901.443c-94.0253,-13.9996 -193.921,3.63189 -274.782,56.6079 -26.7969,17.5547 -50.0209,37.2059 -69.6142,58.3902 -47.6244,51.4878 -74.7745,112.603 -80.5359,175.21 -5.75079,62.4839 9.83505,126.652 47.6622,184.391 15.0614,22.9878 33.5185,44.8678 55.4162,65.1213 40.9654,37.8839 86.256,64.643 135.138,80.5914 49.6902,16.2106 103.186,21.2575 159.715,15.4748 14.2394,-1.45512 29.478,-5.82993 44.6055,-10.1728 23.8181,-6.83623 47.3953,-13.6039 72.0083,-11.0339 28.4575,2.97166 54.0839,16.4634 80.4367,30.3626 -9.19489,-20.7933 -10.5165,-38.8843 -5.18386,-56.289 5.91969,-19.3134 19.9488,-36.2752 40.3878,-54.4087 59.6835,-52.9524 92.5406,-121.121 98.3965,-191.823 5.93032,-71.602 -15.8079,-145.934 -65.3906,-209.857 -56.7532,-73.1729 -144.454,-118.596 -238.259,-132.565zm-170.855 219.82l0 0zm-120.898 -0.357874l0 0zm120.932 -1.7315c-0.0011811,0.917717 -0.0129921,1.61693 -0.034252,2.08937 -0.635434,16.1646 -7.65473,30.6166 -18.5823,41.0032 -10.8921,10.3547 -25.6949,16.6984 -41.9292,16.6831 -16.187,-0.0200788 -31.0087,-6.49016 -41.8985,-16.9429 -10.898,-10.461 -17.915,-24.9827 -18.4902,-41.1012 -0.0212599,-0.607087 -0.0295276,-1.38425 -0.0259843,-2.30906 0.0744095,-16.011 6.69449,-30.7607 17.2654,-41.5937 10.5756,-10.8366 25.1705,-17.8654 41.1851,-18.4288 0.611811,-0.0212599 1.40079,-0.0295276 2.33977,-0.0259843l2.02914 0.0318898c16.2614,0.62126 30.8351,7.65237 41.3044,18.5681 10.4705,10.9205 16.8874,25.7504 16.8366,41.9634l0 0.0625985zm174.119 -43.7823c10.8307,-10.4386 25.5189,-16.8567 41.4508,-16.7457l0.0625985 0 1.69606 0.0283465 0.0625985 0c16.2165,0.597638 30.665,7.63938 41.0114,18.6425 10.2768,10.9252 16.513,25.7669 16.3996,42.052l-0.0307087 1.89449c-0.595276,16.2886 -7.39016,30.6544 -18.1417,40.9441 -10.7658,10.3028 -25.4126,16.4988 -41.6953,16.4433 -1.00039,-0.0011811 -1.76929,-0.0141732 -2.30197,-0.0354331 -16.0736,-0.643701 -30.3662,-7.57087 -40.6205,-18.3933 -10.2295,-10.7941 -16.4492,-25.4457 -16.4079,-41.563 0.0011811,-1.00512 0.0141732,-1.80354 0.0366142,-2.35984 0.643701,-16.0205 7.67127,-30.4925 18.4784,-40.9075z"/><path class="fil2" d="M673.713 749.776l0 0zm36.841 38.2784l0 0zm0.0141732 -0.381496c0.259843,-9.54213 -3.85276,-18.7288 -10.5567,-25.702 -6.8315,-7.10552 -16.2071,-11.8039 -26.2984,-12.1949l-0.420473 -0.0153543c-10.5721,-0.292914 -20.1744,3.56693 -27.1937,10.089 -6.98386,6.4878 -11.4331,15.6036 -11.7378,25.8473l-0.00472441 0.172441c-0.264567,10.428 3.55276,19.7823 10.0417,26.5807 6.49843,6.80906 15.737,11.1106 26.2973,11.4224l0.240945 0.00826772c10.6583,0.253937 20.4189,-3.66851 27.5906,-10.2272 7.07599,-6.47008 11.6421,-15.515 12.0272,-25.5992l0.0141732 -0.381496z"/><path class="fil2" d="M974.144 787.547c0.185433,10.2756 4.52363,19.4492 11.4449,26.0303 7.00394,6.65906 16.6689,10.676 27.404,10.5473 10.7079,-0.12874 20.0669,-4.27087 26.6799,-11.0114 6.57402,-6.69922 10.5047,-16.0748 10.4185,-26.7225l-0.00708662 -0.48189c-0.184252,-10.1362 -4.41496,-19.1988 -11.152,-25.7044 -6.78544,-6.55276 -16.1091,-10.5378 -26.4201,-10.4693l-0.494882 0.00708662c-10.3004,0.188977 -19.891,4.75748 -26.9055,11.8287 -6.88229,6.93662 -11.1449,16.2106 -10.9677,25.976z"/><path class="fil2" d="M1111.12 1090.45c-7.48465,0.262205 -14.3776,3.62244 -19.4339,8.80276 -5.06221,5.18741 -8.23229,12.1016 -8.26536,19.4693l0.0259843 1.05945 0 0.0625985c0.256299,7.42678 3.5752,14.2063 8.73898,19.1622 5.18504,4.97717 12.1854,8.05867 19.774,8.06812 7.71497,0.00708662 14.752,-3.00945 19.9299,-7.93111 5.13071,-4.87678 8.42245,-11.6032 8.70827,-19.0666l0 -0.0625985 0.0318898 -0.902363 0 -0.0625985c0.0307087,-7.61339 -3.00473,-14.6067 -7.96182,-19.7764 -4.97481,-5.18741 -11.8358,-8.52757 -19.428,-8.81694l-1.02992 -0.0318898 -1.09016 0.0259843z"/><path class="fil2" d="M1388.78 1090.55l0 0zm-20.0232 7.84489c-5.10827,4.92284 -8.42835,11.7047 -8.72717,19.1563l-0.0366142 1.11024c-0.0188977,7.63229 2.88307,14.5264 7.65591,19.5638 4.74804,5.01142 11.348,8.22166 18.7465,8.51694l1.05236 0.0354331c7.74449,0.0259843 14.615,-2.82638 19.5709,-7.56851 4.9689,-4.75512 8.113,-11.4449 8.39056,-19.0677l0.0307087 -0.895276c0.0531496,-7.79882 -2.90315,-14.8748 -7.77284,-20.0528 -4.79764,-5.10237 -11.4555,-8.36812 -18.887,-8.64331l-0.884646 -0.0259843c-7.27796,-0.0330709 -14.0634,2.97992 -19.1386,7.87087z"/></g><rect class="fil4" height="2048" width="2048"/></svg>