<?xml version="1.0" ?><svg data-name="Layer 45" height="24" id="Layer_45" viewBox="0 0 24 24" width="24" xmlns="http://www.w3.org/2000/svg"><title/><path d="M16.79175,11.39026a2.62764,2.62764,0,0,0,.12231-2.715c-.77968-1.00887-2.78975-.82543-4.99718.278a.25539.25539,0,0,1-.34606-.32575c.42548-1.12085.4314-2.06959-.08552-2.61178C10.36914,4.84515,7.2475,6.0097,4.513,8.61694,2.12671,10.89215.82471,13.51355,1.27325,14.92236c-.00275.112-.01166.22028-.00323.33893.22943,3.23694,4.57544,5.56616,9.70715,5.20245s8.87634-3.27441,8.87634-6.51947C19.85352,12.74115,18.65027,11.889,16.79175,11.39026Z" style="fill:#fa6d62"/><ellipse cx="9.82616" cy="14.99608" rx="6.31049" ry="4.17833" style="fill:#fff" transform="translate(-1.03553 0.73216) rotate(-4.05378)"/><ellipse cx="9.24718" cy="15.35963" rx="3.41452" ry="2.92673" style="fill:#738394" transform="translate(-3.99351 3.27192) rotate(-16.55657)"/><ellipse cx="8.20916" cy="15.9759" rx="1.2188" ry="0.95905" style="fill:#fff" transform="translate(-4.27925 3.06624) rotate(-16.85356)"/><ellipse cx="9.99041" cy="14.81965" rx="0.47069" ry="0.37038" style="fill:#fff" transform="translate(-3.86751 3.53301) rotate(-16.85356)"/><path d="M19.07471,9.5166a.76.76,0,0,1-.11426-.00879.74908.74908,0,0,1-.62793-.85449,1.56289,1.56289,0,0,0,.01758-.231,1.52849,1.52849,0,0,0-1.72852-1.48242.75027.75027,0,0,1-.23242-1.48242,3,3,0,0,1,3.42578,3.42236A.74974.74974,0,0,1,19.07471,9.5166Z" style="fill:#ffab66"/><path d="M21.69873,10.3999a.75033.75033,0,0,1-.72754-.93359,4.25435,4.25435,0,0,0-4.86865-5.22852.75018.75018,0,0,1-.26074-1.47754,5.85424,5.85424,0,0,1,1.0083-.08789,5.75366,5.75366,0,0,1,5.5752,7.16113A.75026.75026,0,0,1,21.69873,10.3999Z" style="fill:#ffab66"/></svg>